<svg viewBox="0 0 800 450" preserveAspectRatio="xMidYMid slice" xmlns="http://www.w3.org/2000/svg" role="img" aria-label="Abstract churn classification scatter">
  <defs>
    <linearGradient id="c-bg" x1="0" y1="0" x2="800" y2="450" gradientUnits="userSpaceOnUse">
      <stop offset="0" stop-color="#0C2747"/>
      <stop offset="1" stop-color="#081627"/>
    </linearGradient>
    <radialGradient id="c-glow" cx="610" cy="120" r="340" gradientUnits="userSpaceOnUse">
      <stop offset="0" stop-color="currentColor" stop-opacity="0.5"/>
      <stop offset="1" stop-color="currentColor" stop-opacity="0"/>
    </radialGradient>
  </defs>
  <rect width="800" height="450" fill="url(#c-bg)"/>
  <rect width="800" height="450" fill="url(#c-glow)"/>
  <g fill="none" stroke="#ffffff" stroke-opacity="0.05" stroke-width="1">
    <path d="M0 150H800M0 300H800M200 0V450M400 0V450M600 0V450"/>
  </g>
  <line x1="150" y1="390" x2="660" y2="80" fill="none" stroke="currentColor" stroke-width="3" stroke-dasharray="9 9" stroke-opacity="0.9" stroke-linecap="round"/>
  <g fill="currentColor" fill-opacity="0.5">
    <circle cx="185" cy="335" r="8"/><circle cx="235" cy="300" r="8"/><circle cx="165" cy="370" r="8"/>
    <circle cx="270" cy="345" r="8"/><circle cx="310" cy="315" r="8"/><circle cx="220" cy="385" r="8"/>
    <circle cx="345" cy="360" r="8"/>
  </g>
  <g fill="currentColor">
    <circle cx="520" cy="170" r="8"/><circle cx="565" cy="135" r="8"/><circle cx="610" cy="185" r="8"/>
    <circle cx="650" cy="150" r="8"/><circle cx="500" cy="220" r="8"/><circle cx="595" cy="225" r="8"/>
  </g>
  <circle cx="565" cy="135" r="15" fill="none" stroke="#ffffff" stroke-opacity="0.8" stroke-width="2.5"/>
</svg>
